<svg width="512" height="512" viewBox="0 0 512 512" xmlns="http://www.w3.org/2000/svg" xmlns:xlink="http://www.w3.org/1999/xlink" id="Layer_1" overflow="hidden"><path d="M508.581 339.577C499.639 318.923 483.402 303.335 461.625 294.499 444.002 287.349 423.883 285.198 404.354 288.263L396.552 271.588 396.552 248.301C400.74 249.841 405.193 250.655 409.735 250.655L436.243 250.655C445.627 250.655 453.261 243.026 453.261 233.646L453.261 190.901C453.261 181.522 445.627 173.892 436.243 173.892L409.735 173.892C405.193 173.892 400.74 174.706 396.552 176.245L396.552 150.34C396.552 146.186 395.627 142.379 393.803 139.017 390.676 132.153 384.529 127.258 377.34 125.633L365.81 99.381C369.691 96.376 372.203 91.692 372.203 86.422L372.203 73.537C372.203 65.447 366.14 58.901 357.136 57.251L319.32 50.212C319.313 50.211 319.306 50.21 319.299 50.208 315.153 49.448 311.008 50.58 307.631 53.396 303.801 56.588 301.515 61.496 301.515 66.526L301.515 86.423C301.515 95.473 308.882 102.835 317.937 102.835L350.817 102.835 360.554 125.005 322.402 124.874C322.36 124.873 322.319 124.873 322.277 124.873 308.138 124.873 300.412 135.29 300.088 145.611 299.752 156.324 307.058 167.617 321.673 168.472L351.946 170.242 351.946 194.525C345.941 190.266 338.258 186.784 329.083 184.271 291.837 174.07 239.634 181.199 220.113 207.128L161.022 207.128C156.848 207.128 153.464 210.511 153.464 214.685 153.464 218.859 156.848 222.242 161.022 222.242L216.537 222.242 216.537 261.537 129.798 261.537 93.943 261.537 33.91 261.537C23.876 261.537 17.886 256.648 17.886 248.46L17.886 216.813C17.886 212.96 18.843 210.105 20.731 208.327 22.942 206.245 26.812 205.216 31.353 205.482 31.515 205.492 31.683 205.5 31.839 205.496L45.41 205.439C48.328 205.453 50.935 207.806 54.949 211.643 59.672 216.16 65.549 221.78 74.409 222.232 74.537 222.239 74.666 222.242 74.795 222.242L128.095 222.242C132.269 222.242 135.653 218.859 135.653 214.685 135.653 210.511 132.269 207.128 128.095 207.128L75.025 207.128C72.059 206.902 69.393 204.544 65.394 200.72 60.571 196.108 54.568 190.367 45.413 190.325L32.005 190.381C23.302 189.909 15.626 192.374 10.368 197.323 6.901 200.587 2.769 206.618 2.769 216.813L2.769 248.46C2.769 265.058 15.574 276.651 33.908 276.651L84.621 276.651 82.467 286.848C48.068 287.453 10.896 304.114 2.063 336.809-1.225 349.017-0.591 357.707 4.001 363.377 5.165 364.815 6.861 366.362 9.244 367.512 8.232 372.595 7.713 377.785 7.713 383.024 7.713 426.583 43.183 462.021 86.782 462.021 123.949 462.021 156.016 435.863 163.952 400.181L198.133 400.146C202.307 400.142 205.687 396.755 205.683 392.581 205.679 388.41 202.296 385.032 198.125 385.032 198.123 385.032 198.12 385.032 198.117 385.032L110.578 385.123C111.431 383.167 112.119 381.036 112.564 378.684L114.685 369.38 228.075 369.38C228.085 369.38 228.095 369.382 228.105 369.382 228.115 369.382 228.125 369.38 228.135 369.38L243.354 369.38C254.962 369.38 260.506 366.624 267.076 357.589L308.78 300.37C308.819 300.315 308.862 300.262 308.9 300.205L326.067 276.652 350.499 276.652 277.241 372.386C277.15 372.505 277.063 372.626 276.979 372.749 268.686 385.032 260.416 385.032 257.303 385.032L227.812 385.032C223.638 385.032 220.254 388.415 220.254 392.589 220.254 396.763 223.638 400.146 227.812 400.146L257.303 400.146C270.12 400.146 280.91 393.84 289.376 381.399L357.707 292.104 363.435 304.034C349.978 313.251 340.204 325.573 334.976 340.007 330.883 351.32 330.995 360.174 335.309 366.323 336.789 368.432 339.201 370.778 343.033 372.323 342.557 375.838 342.309 379.415 342.309 383.024 342.309 426.583 377.779 462.021 421.378 462.021 464.977 462.021 500.447 426.583 500.447 383.024 500.447 379.576 500.211 376.118 499.758 372.68 504.466 371.057 507.281 368.243 508.923 365.738 514.91 356.621 510.675 344.399 508.581 339.577ZM396.552 193.133C400.423 190.455 405.004 189.007 409.735 189.007L436.243 189.007C437.275 189.007 438.146 189.875 438.146 190.901L438.146 233.646C438.146 234.672 437.275 235.54 436.243 235.54L409.735 235.54C405.005 235.54 400.423 234.091 396.552 231.413ZM357.088 86.424C357.088 87.127 356.477 87.722 355.753 87.722L355.715 87.722C355.679 87.722 355.643 87.721 355.607 87.722L317.938 87.722C317.23 87.722 316.631 87.127 316.631 86.424L316.631 66.527C316.631 66.019 316.902 65.479 317.139 65.182L354.391 72.116C355.91 72.394 357.088 73.109 357.088 73.538ZM18.473 354.125C18.35 354.126 18.227 354.128 18.104 354.135 16.318 354.231 15.758 353.876 15.758 353.875 15.318 353.44 14.184 349.934 16.659 340.747 22.452 319.303 48.567 303.573 79.257 302.062L68.26 354.124 18.546 354.124C18.521 354.124 18.497 354.125 18.473 354.125ZM83.761 399.734C84.432 399.854 85.111 399.942 85.794 400.004 86.41 400.166 87.054 400.261 87.721 400.261L87.729 400.261 109.152 400.239C103.911 407.01 95.716 411.259 86.783 411.259 71.195 411.259 58.514 398.593 58.514 383.025 58.514 378.138 59.771 373.441 62.139 369.239L65.068 369.239 64.956 369.769C64.937 369.862 64.919 369.954 64.903 370.046 62.011 386.813 72.2 397.673 83.761 399.734ZM126.594 400.221 148.384 400.199C140.794 427.353 115.693 446.908 86.783 446.908 51.519 446.908 22.829 418.25 22.829 383.025 22.829 378.357 23.337 373.741 24.326 369.239L45.641 369.239C44.162 373.639 43.399 378.276 43.399 383.025 43.399 406.928 62.861 426.373 86.783 426.373 104.199 426.373 119.821 415.867 126.594 400.221ZM114.88 300.534 101.309 360.064C101.3 360.107 101.288 360.15 101.279 360.194L97.797 375.469C97.774 375.572 97.752 375.676 97.733 375.781 96.173 384.258 89.881 385.469 86.414 384.854 84.436 384.501 78.136 382.588 79.777 372.745L81.751 363.398C81.777 363.284 81.802 363.17 81.824 363.054L100.072 276.653 120.325 276.653 114.961 300.184C114.931 300.301 114.902 300.417 114.88 300.534ZM151.324 354.124C151.289 354.124 151.255 354.124 151.22 354.124L118.166 354.124 127.516 313.11C139 319.98 147.589 329.729 152.603 341.696 152.619 341.733 152.634 341.77 152.65 341.807 154.237 345.429 155.602 350.831 155.92 354.187ZM131.012 297.772 135.827 276.653 206.797 276.653 161.363 325.719C154.192 313.973 143.889 304.486 131.012 297.772ZM168.281 340.495 227.397 276.652 307.367 276.652 298.772 288.445 252.733 288.445C248.559 288.445 245.175 291.828 245.175 296.002 245.175 300.176 248.559 303.559 252.733 303.559L287.756 303.559 268.319 330.227C262.936 324.623 255.394 321.256 247.194 321.256 239.176 321.256 231.679 324.4 226.1 330.093 221.101 335.165 218.104 341.861 217.661 348.944 217.548 350.734 217.615 352.511 217.819 354.265L171.04 354.265C170.868 349.281 169.481 344.108 168.281 340.495ZM243.358 354.266 233.133 354.266C232.788 352.851 232.652 351.379 232.746 349.891 232.961 346.443 234.424 343.18 236.88 340.688 239.608 337.905 243.27 336.371 247.193 336.371 252.22 336.371 256.608 338.825 259.129 342.836L254.86 348.693C251.266 353.636 250.393 354.266 243.358 354.266ZM351.946 261.538 231.653 261.538 231.653 216.898C246.11 196.131 292.964 190.05 325.09 198.85 333.165 201.062 351.947 207.625 351.947 220.76L351.947 261.538ZM359.945 155.57 322.556 153.384C316.965 153.057 315.097 149.248 315.197 146.087 315.255 144.25 316.06 139.989 322.286 139.989L322.346 139.989 372.116 140.16C375.585 140.176 378.723 142.238 380.109 145.416 380.214 145.656 380.331 145.892 380.46 146.119 381.11 147.266 381.439 148.687 381.439 150.342L381.439 189.51 381.439 235.037 381.439 273.269C381.439 274.376 381.682 275.47 382.151 276.471L392.977 299.609C393.071 299.838 393.175 300.06 393.289 300.276L428.036 374.535C430.04 378.814 429.299 381.707 425.771 383.381 423.319 384.543 419.017 384.861 417.572 381.854L367.062 276.656 367.062 269.095 367.062 220.76 367.062 163.115C367.061 159.112 363.94 155.803 359.945 155.57ZM443.738 374.034 448.161 374.034C449.125 376.908 449.624 379.915 449.624 383.024 449.624 398.592 436.955 411.258 421.383 411.258 405.796 411.258 393.114 398.592 393.114 383.024 393.114 379.931 393.62 376.923 394.598 374.034L397.049 374.034 403.946 388.399C407.582 395.965 414.759 399.336 422.011 399.336 425.539 399.336 429.084 398.538 432.248 397.038 439.972 393.374 446.068 384.935 443.738 374.034ZM347.688 357.642C346.95 356.59 346.436 352.775 349.194 345.153 353.079 334.424 360.236 325.113 370.08 317.865L389.792 358.92 352.77 358.92C350.188 358.92 348.241 358.43 347.688 357.642ZM421.383 446.908C386.119 446.908 357.43 418.25 357.43 383.025 357.43 379.985 357.644 376.979 358.058 374.035L378.954 374.035C378.332 376.969 377.999 379.968 377.999 383.025 377.999 406.928 397.461 426.373 421.383 426.373 445.29 426.373 464.739 406.927 464.739 383.025 464.739 379.961 464.411 376.962 463.795 374.035L484.675 374.035C485.097 377.024 485.337 380.029 485.337 383.025 485.337 418.25 456.647 446.908 421.383 446.908ZM496.29 357.449C495.686 358.37 493.694 358.92 490.962 358.92L437.415 358.92 411.064 302.603C442.559 299.156 479.565 310.6 494.713 345.591 497.134 351.164 497.332 355.859 496.29 357.449Z" fill="#FFFFFF"/></svg>